<svg id="Layer_1" data-name="Layer 1" xmlns="http://www.w3.org/2000/svg" viewBox="0 0 100 143.61"><defs><style>.cls-1{fill:#91479b;}</style></defs><title>castle</title><path class="cls-1" d="M530.1,440c-3.63.37-6.89.57-9.59-1.85-9.88-.93-9.45,1.71-9.26-2.78-.67-7.39.22-14.83-.76-16.14-4.07-6-9.37-4.44-12.57.4-.16,2.06.07,4.25-.08,6.47-.07,13.42.77,12-1.67,12-2.78.26-5.33,0-8.09.69a73.39,73.39,0,0,1-8,1.41c-1.22-.1-2.12-1.25-3.2-1.78a10.16,10.16,0,0,0-5.61-1.34c-1.6.22-2.6,1.36-4,2.19-3.68,1.4-8.85,1.22-11.65-.68-1-.95-.26-2.19-.32-3.52.12-2.22.25-4.26.29-6.5.26-7.35.67-14.69.95-22.07.42-2.2-.06-4.25.39-6.64-.05-.28-.33-.32-.69-.36-1.6.17-1-2.28-1.38-3.27-.13-2-1-4.61-.62-6.25.87-.25,2.26.2,3-.42,2.12-2,3-4.67,4.16-7.19.15-.45-.48-.47-.91-.76a1.73,1.73,0,0,1-.78-1.35,2.33,2.33,0,0,1,1.95-2.45c2.36-.33,3.28,2,2,3.61-.28.43-1.21.59-.93,1.24,3.36,8.48,3,7.07,7.05,7.47.22,1.4-1.68,6.69-.38,6.2.6-.05,1-.32,1.05-1-.06-2.08.09-4.41-.06-6.49-.09-.23-1.83-.15-1.21-.63,1.94-2.16,3.51-4.29,5.49-6.57.9-1.18.49-2.09.55-3.53a65.28,65.28,0,0,0,.13-8.17c-.09-.27-1.69-.19-1.4-1.11a12.88,12.88,0,0,0,.39-4.14c.21-1.47.11-2.15-1.42-2.33a39.92,39.92,0,0,0,6.67-10,11.76,11.76,0,0,0,1.58-7.74c-.15-.6.35-1.72-.49-1.61a9.38,9.38,0,0,1-6.7-.15c-.9-1.19,1.76-.73,2.29-1.26a14.29,14.29,0,0,0,6.07-3.7c-.52,14.65.91,14.48,7,24.9,0,.22-.39.27-1.13.4a38.48,38.48,0,0,0-.11,5.59c0,.62,0,1.13-.86,1.4,0,2.76,0,5.67,0,8.57.11.57-.29,1.25.11,1.65.84.29,2.54.43,3-.13,0-1.71,0-3.79.06-5.63.17-1.12-1.61-.16-1.1-1.23a38.34,38.34,0,0,0,3-13.11,2.06,2.06,0,0,1-.89-2.63h0c2.39-2.4,4,.85,2.2,2.8a16,16,0,0,0,1.74,5.63c-.09-25.71.28-15.09-1.68-21.3,0-.53.72-.16,1.13-.36.13-1.91.35-2.74-1.83-2.8a65.09,65.09,0,0,0,3.31-16.17c.86-6.81-.26-2.84-4.69-4.38-1.21-.62-5.89-2.45-2.08-2,2.88-.58,6.44-.56,7.94-3.41,0,0,0,0,.17,0-.28,12.56,1.66,17.5,4.87,26.05-.24.47-1.57-.17-1.27.81-.71,4.63,2.1,1,1,3.64-1.51,2.49-.77,5.31-.92,8.17.1.62-.33,3.89.37,2.74,2.46-3.57,2.76-8.26,3.19-12.53-.31-.58-1.18-.68-1.62-1.4,0-1.1.46-2.64,1.83-2.66a2,2,0,0,1,2.05,3.06c-.2.55-1.05.64-1,1.29a42.8,42.8,0,0,0,2.57,12.83c.07,1.18,1.74,2.85,2.22,1,0-3.61-.06-7.18-.07-10.76-1.48-.18-.94-1.66-1.12-2.83a17,17,0,0,0-1-4c-.13-1,1.93-.17,2.67-.51.06-1.46,1-4.38-1.38-4.3,3.27-8.5,5.36-24.56,5.07-29.58-.39-3.93,1.08-5.06-2.3-3.23-2.75,1.25-6.63-1.59-6.29-4.53,2.28,2.53,9.26-.66,9.09-2.24.18,0,.47,0,.57.23-.91,17,2.64,27.85,5.05,39.54-2.46-.32-1.49,2.64-1.52,4.23.17.66,1.86-.11,2.49.48-1.1,2.25-.52,4.95-1.84,7.11-.23,5.81.13,11.58,0,17.44.29,12.33-.8,9.32,2.3,9.7,1.05.13.49-1.95.59-3-.32-.93-2.06.18-1.88-.88a41.42,41.42,0,0,0,3.06-10.88c-.05-1.93,1.47-5.37.53-6.4-3.17-2.08,1.17-5.09,2.76-2.36.49,1.14-.31,2-1.42,2.52a37.11,37.11,0,0,0,2.18,12.28A22.94,22.94,0,0,0,530.9,372c-.42.11-1.39-.16-1.82.24.51.59-.09,3.09.56,3.47,5.38.4,3.82-.46,5.93,3.11,1.39,2.84,3.4,5.89,4.52,8.7-.07.16-.31.19-.8.22-1.57-.44-1,1.37-1.07,2.38-.25,2.89.82,1.41,2.62,1.85,1.21.38,1.93-2.88,2-3.58a21.3,21.3,0,0,0,2.53-6.12c-3.81-2.11.86-5.86,2.11-2.6.33,4.39-3.64-1.26,1.37,8.89h0a12.94,12.94,0,0,0,1.64,3.36c1.81.5,4.08-.79,3.56,1.78-.33,2.41-.66,4.5-1,6.77-.32.89-3.18,1.39-2.77,2.68,1.07,11.54,1.93,22.93,2.85,34.64.42,3.24-6.86,2.33-8.27,2.43-4.81.17-6.84-4.22-10.08-2.6C533.17,438.53,531.94,439.72,530.1,440Zm-43-25.47c.45,6.49.79,13.63,1,20.27,1.23.76,1.64.32,1.47-1.1-.06-11.07.22-21.67-.05-32.73,0-.34-3.56-.37-3.06.68C486.74,406.06,487.06,410.1,487.15,414.57Zm21.34-45.88c-1.66-.2-4.81-.34-5.56.06a71.55,71.55,0,0,0,.09,9.38c1.25.32,5.42.31,5.53-.36a83.58,83.58,0,0,0-.07-9.1h0Zm13.16,65.12c1.61-35.88,1.9-33.21.54-33.07-1,.39-2.58-.35-2.5.83-.22,5.08.27,9.76.14,14.89.46,19.93-.8,19.29,1.61,19.2C522.08,435.32,521.63,434.54,521.65,433.81Zm-13.44-45.7c-.2-2.1.52-6.58-.42-6.44-5.34.15-4.75-.89-4.75,2.8.19,3.68-.43,8.5.32,8.62C510.12,393.29,507.85,393.35,508.21,388.11Z" transform="translate(-454.13 -296.66)"/></svg>